<svg width="173" height="165" viewBox="0 0 173 165" fill="none" xmlns="http://www.w3.org/2000/svg">
<g clip-path="url(#clip0_11_82)">
<path d="M158.669 141.163L150.745 147.842L157.042 138.167C152.081 129.929 143.966 122.81 143.966 122.81C143.966 122.81 127.131 137.577 127.131 149.186C127.131 160.794 134.668 164.847 143.966 164.847C153.264 164.847 160.801 160.794 160.801 149.186C160.801 146.602 159.966 143.862 158.669 141.163Z" fill="#F2F2F2"/>
<path d="M148.707 148.204V148.776C148.67 155.427 147.445 160.616 145.041 164.27C145.007 164.324 144.969 164.375 144.935 164.429L144.666 164.279L144.409 164.131C147.076 160.186 148.02 154.608 148.054 148.807C148.057 148.62 148.06 148.43 148.057 148.24C148.048 145.785 147.884 143.3 147.621 140.887C147.602 140.7 147.581 140.51 147.559 140.32C147.194 137.137 146.668 134.094 146.13 131.452C146.093 131.265 146.052 131.078 146.012 130.893C145.081 126.424 144.131 123.186 143.914 122.469C143.89 122.381 143.874 122.333 143.871 122.322L144.165 122.246L144.168 122.243L144.465 122.166C144.468 122.178 144.521 122.339 144.607 122.639C144.939 123.761 145.799 126.806 146.643 130.823C146.68 131.004 146.721 131.191 146.758 131.378C147.197 133.522 147.627 135.919 147.967 138.434C148.054 139.066 148.131 139.689 148.199 140.303C148.224 140.493 148.246 140.683 148.264 140.87C148.549 143.479 148.697 145.923 148.707 148.204Z" fill="white"/>
<path d="M146.643 130.823C146.436 130.848 146.226 130.874 146.012 130.893C145.432 130.948 144.85 130.976 144.267 130.976C141.783 130.979 139.331 130.471 137.089 129.491C136.96 129.641 136.83 129.792 136.697 129.945C139.054 130.998 141.644 131.545 144.267 131.542C144.889 131.542 145.511 131.512 146.13 131.451C146.34 131.432 146.55 131.406 146.758 131.378C148.469 131.153 150.133 130.692 151.692 130.01C151.559 129.854 151.429 129.701 151.303 129.551C149.826 130.183 148.256 130.611 146.643 130.823Z" fill="white"/>
<path d="M148.199 140.304C147.986 140.315 147.773 140.32 147.559 140.32C147.494 140.323 147.426 140.323 147.361 140.323C144.67 140.323 142.018 139.728 139.633 138.587C137.248 137.446 135.199 135.794 133.661 133.771C133.538 133.939 133.414 134.106 133.293 134.276C134.896 136.322 137.008 137.989 139.454 139.14C141.9 140.29 144.611 140.89 147.361 140.89C147.448 140.89 147.534 140.89 147.621 140.887C147.837 140.884 148.051 140.879 148.264 140.87C151.568 140.715 154.752 139.692 157.438 137.924C157.339 137.757 157.24 137.59 157.138 137.423C154.528 139.159 151.422 140.16 148.199 140.304Z" fill="white"/>
<path d="M148.707 148.204C148.49 148.221 148.274 148.232 148.057 148.24C147.825 148.249 147.593 148.255 147.361 148.255C143.745 148.251 140.227 147.175 137.335 145.187C134.442 143.2 132.331 140.408 131.316 137.23C131.177 137.46 131.038 137.686 130.905 137.916C132.048 141.086 134.253 143.847 137.207 145.804C140.161 147.762 143.714 148.818 147.361 148.821C147.593 148.821 147.825 148.818 148.054 148.807C148.274 148.801 148.49 148.79 148.707 148.776C153.081 148.463 157.162 146.639 160.123 143.674C160.058 143.465 159.984 143.258 159.91 143.048C157.05 146.035 153.031 147.884 148.707 148.204Z" fill="white"/>
<path d="M130.173 35.6765L43.9816 25.6157C43.7494 25.5884 43.5156 25.5745 43.2815 25.5741C43.0507 25.5737 42.8202 25.587 42.5914 25.614C42.3629 25.6409 42.1366 25.6814 41.9139 25.7354C41.6886 25.7904 41.4675 25.8588 41.2518 25.9399C41.0405 26.0194 40.8347 26.1104 40.6354 26.2127C40.4335 26.3157 40.2384 26.4296 40.0511 26.5537C39.8595 26.681 39.676 26.8182 39.5014 26.9646C39.3211 27.1152 39.1498 27.2745 38.9882 27.4419C38.8223 27.6143 38.6662 27.7944 38.5204 27.9814C38.3732 28.1707 38.235 28.3677 38.1059 28.5723C37.9768 28.7776 37.857 28.991 37.7466 29.2126C37.6361 29.4343 37.5353 29.6634 37.4441 29.9C37.3498 30.1446 37.2671 30.3947 37.1961 30.6502C37.1251 30.9057 37.0658 31.1656 37.0181 31.43C36.9714 31.6941 36.9357 31.9626 36.9108 32.2354C36.886 32.5082 36.8736 32.7842 36.8736 33.0636C36.8746 33.3428 36.887 33.621 36.9108 33.8983C36.9347 34.1757 36.9704 34.4507 37.0181 34.7235C37.0663 34.9974 37.1258 35.2686 37.1969 35.5371C37.2679 35.8055 37.3505 36.0709 37.4449 36.3332C37.536 36.5867 37.6368 36.8344 37.7473 37.0762C37.8578 37.3183 37.9776 37.5538 38.1067 37.7827C38.2358 38.0116 38.374 38.234 38.5212 38.4497C38.6682 38.6663 38.8241 38.8748 38.9889 39.075C39.1538 39.2753 39.3249 39.4664 39.5021 39.6482C39.6794 39.8289 39.8627 39.9994 40.0518 40.1597C40.241 40.3199 40.4358 40.4696 40.6362 40.6087C40.8343 40.7465 41.0401 40.8748 41.2525 40.9934C41.4665 41.1129 41.6875 41.2214 41.9147 41.3183C42.1351 41.4123 42.3613 41.4944 42.5921 41.5642C42.8182 41.6325 43.0487 41.6882 43.2822 41.7309C43.5134 41.7731 43.7473 41.8021 43.9824 41.8179L130.173 47.5902C130.424 47.6069 130.676 47.5838 130.918 47.522C131.041 47.4906 131.162 47.45 131.278 47.4006C131.399 47.3491 131.515 47.2892 131.627 47.2216C131.739 47.1531 131.847 47.0779 131.949 46.9966C132.056 46.9112 132.158 46.8201 132.253 46.7238C132.354 46.622 132.449 46.5155 132.537 46.4046C132.629 46.2905 132.717 46.1689 132.801 46.0398C132.886 45.9107 132.965 45.776 133.041 45.6357C133.116 45.4955 133.186 45.3498 133.252 45.1986C133.318 45.0477 133.378 44.8915 133.434 44.7301C133.49 44.5687 133.541 44.4025 133.587 44.2316C133.635 44.0547 133.677 43.8747 133.712 43.6915C133.747 43.5083 133.777 43.3223 133.802 43.1337C133.826 42.945 133.844 42.7538 133.856 42.5601C133.868 42.3665 133.874 42.1706 133.874 41.9726C133.873 41.7749 133.867 41.578 133.856 41.3821C133.845 41.1861 133.827 40.9916 133.802 40.7986C133.778 40.6057 133.748 40.4143 133.712 40.2244C133.676 40.0346 133.635 39.8469 133.587 39.6611C133.541 39.4816 133.49 39.3061 133.434 39.1347C133.379 38.9656 133.318 38.7989 133.252 38.6348C133.185 38.4707 133.115 38.3116 133.041 38.1574C132.966 38.0036 132.886 37.8542 132.801 37.7094C132.716 37.5646 132.628 37.4268 132.537 37.2961C132.446 37.1654 132.351 37.0415 132.253 36.9245C132.155 36.8074 132.054 36.6978 131.949 36.5958C131.847 36.4958 131.739 36.4008 131.627 36.3114C131.516 36.2238 131.399 36.1426 131.278 36.0683C131.163 35.9981 131.043 35.9354 130.918 35.8807C130.799 35.8285 130.676 35.7847 130.549 35.7498C130.426 35.716 130.3 35.6914 130.173 35.6765" fill="#E6474B"/>
<path d="M130.173 58.3674L43.9816 56.4774C43.5141 56.4668 43.0469 56.5104 42.5914 56.6073C42.3616 56.6563 42.1353 56.7183 41.9139 56.7931C41.6876 56.8695 41.4665 56.9583 41.2518 57.0591C41.0398 57.1585 40.834 57.2687 40.6354 57.3891C40.433 57.5119 40.238 57.6445 40.0511 57.7864C39.8593 57.932 39.6759 58.0866 39.5014 58.2494C39.3239 58.4149 39.1528 58.5908 38.9882 58.7772C38.8236 58.9641 38.6677 59.1588 38.5204 59.3613C38.3732 59.5639 38.235 59.7739 38.1059 59.9915C37.9768 60.209 37.857 60.4338 37.7465 60.6659C37.6361 60.898 37.5353 61.1367 37.4441 61.382C37.3498 61.6359 37.2671 61.8939 37.1961 62.156C37.1251 62.4181 37.0658 62.6836 37.0181 62.9525C36.9714 63.2214 36.9357 63.4934 36.9108 63.7685C36.886 64.0435 36.8736 64.3207 36.8736 64.6001C36.8746 64.8795 36.887 65.1566 36.9108 65.4314C36.9347 65.7062 36.9704 65.978 37.0181 66.2467C37.0663 66.514 37.1258 66.7785 37.1969 67.0401C37.2679 67.3018 37.3505 67.5593 37.4449 67.8128C37.536 68.0587 37.6368 68.2974 37.7473 68.5288C37.8578 68.7602 37.9776 68.9844 38.1067 69.2012C38.2358 69.4181 38.374 69.6273 38.5212 69.829C38.6682 70.0299 38.8241 70.2231 38.9889 70.4086C39.1538 70.5941 39.3249 70.769 39.5021 70.9334C39.6766 71.0953 39.8601 71.2488 40.0518 71.3934C40.2387 71.5342 40.4338 71.6657 40.6362 71.7872C40.8348 71.9064 41.0406 72.0154 41.2525 72.1135C41.4673 72.2131 41.6884 72.3006 41.9147 72.3757C42.1361 72.4492 42.3624 72.5099 42.5921 72.5575C42.8196 72.6049 43.0501 72.6391 43.2822 72.6598C43.5149 72.6801 43.7487 72.6871 43.9824 72.6806L130.173 70.2797C130.299 70.2762 130.425 70.2629 130.549 70.2398C130.675 70.2165 130.798 70.1838 130.918 70.142C131.042 70.0986 131.162 70.0466 131.278 69.9865C131.399 69.9232 131.516 69.8523 131.627 69.7744C131.739 69.6951 131.847 69.6097 131.949 69.5187C132.056 69.4232 132.158 69.3226 132.253 69.2173C132.351 69.11 132.445 68.9946 132.537 68.8712C132.629 68.7477 132.717 68.6178 132.801 68.4814C132.886 68.3441 132.965 68.2018 133.041 68.0545C133.116 67.9072 133.186 67.7549 133.252 67.5976C133.318 67.4378 133.378 67.2752 133.434 67.1097C133.49 66.9442 133.541 66.7737 133.587 66.5982C133.635 66.4186 133.677 66.2355 133.712 66.0489C133.747 65.8623 133.777 65.6735 133.802 65.4826C133.826 65.2909 133.844 65.0977 133.856 64.9029C133.868 64.7081 133.874 64.5117 133.874 64.3137C133.873 64.1175 133.867 63.9216 133.856 63.7259C133.845 63.5301 133.827 63.3369 133.802 63.1462C133.778 62.9548 133.748 62.7662 133.712 62.5805C133.676 62.3948 133.635 62.211 133.587 62.0292C133.541 61.8537 133.49 61.6827 133.434 61.5163C133.378 61.3499 133.317 61.1883 133.252 61.0315C133.186 60.8746 133.116 60.7227 133.041 60.5756C132.966 60.4285 132.886 60.2868 132.801 60.1504C132.717 60.0138 132.629 59.8842 132.537 59.7617C132.446 59.6391 132.351 59.5242 132.253 59.4169C132.158 59.3121 132.056 59.2121 131.949 59.1172C131.847 59.0269 131.74 58.9422 131.627 58.8635C131.516 58.7863 131.399 58.7161 131.278 58.6535C131.162 58.5942 131.042 58.5432 130.918 58.5007C130.798 58.4596 130.675 58.4275 130.549 58.4049C130.425 58.3827 130.299 58.3701 130.173 58.3674Z" fill="#E4E4E4"/>
<path d="M130.173 79.6399L43.9816 85.4113C43.7465 85.427 43.5127 85.4561 43.2815 85.4982C43.048 85.541 42.8175 85.5966 42.5914 85.665C42.3605 85.7347 42.1343 85.8168 41.9139 85.9108C41.6868 86.0078 41.4657 86.1163 41.2518 86.2358C41.0393 86.3543 40.8336 86.4827 40.6354 86.6204C40.4348 86.7606 40.24 86.9103 40.0511 87.0695C39.8622 87.2293 39.6789 87.3997 39.5014 87.5809C39.3239 87.7621 39.1528 87.9531 38.9882 88.1541C38.8236 88.3557 38.6677 88.5644 38.5204 88.7801C38.3732 88.9959 38.235 89.2182 38.1059 89.4471C37.9768 89.6762 37.857 89.9117 37.7466 90.1536C37.6361 90.3954 37.5353 90.6431 37.4441 90.8966C37.3498 91.1585 37.2671 91.4238 37.1961 91.6928C37.1251 91.9617 37.0658 92.2325 37.0181 92.5053C36.9714 92.7785 36.9357 93.0537 36.9108 93.3308C36.886 93.6079 36.8736 93.8861 36.8736 94.1655C36.8746 94.4449 36.887 94.721 36.9108 94.9937C36.9347 95.2665 36.9704 95.5351 37.0181 95.7995C37.0663 96.0645 37.1258 96.3246 37.1969 96.5796C37.2679 96.8347 37.3505 97.0847 37.4449 97.3298C37.536 97.5666 37.6368 97.7958 37.7473 98.0172C37.8578 98.2388 37.9776 98.4523 38.1067 98.6575C38.2358 98.8628 38.374 99.0598 38.5212 99.2484C38.6669 99.4354 38.8231 99.6155 38.9889 99.7879C39.1506 99.9553 39.3219 100.115 39.5021 100.265C39.6767 100.412 39.8603 100.549 40.0518 100.676C40.2391 100.8 40.4342 100.914 40.6362 101.017C40.8354 101.119 41.0412 101.21 41.2525 101.29C41.4682 101.371 41.6894 101.439 41.9147 101.494C42.1374 101.548 42.3637 101.589 42.5921 101.616C42.821 101.643 43.0515 101.656 43.2822 101.656C43.5163 101.655 43.7502 101.641 43.9824 101.614L130.173 91.5557C130.3 91.5407 130.426 91.5162 130.549 91.4824C130.676 91.4475 130.799 91.4037 130.918 91.3514C131.043 91.2967 131.163 91.2341 131.278 91.1639C131.399 91.0896 131.516 91.0084 131.627 90.9208C131.739 90.8313 131.847 90.7364 131.949 90.6364C132.052 90.5341 132.154 90.4246 132.253 90.3077C132.351 90.1909 132.445 90.067 132.537 89.9361C132.629 89.8051 132.717 89.6674 132.801 89.5228C132.886 89.3791 132.965 89.2298 133.041 89.0747C133.116 88.9197 133.186 88.7606 133.252 88.5974C133.318 88.4335 133.378 88.2658 133.434 88.0944C133.49 87.923 133.541 87.7476 133.587 87.568C133.635 87.382 133.677 87.1942 133.712 87.0043C133.747 86.8145 133.777 86.6231 133.802 86.4301C133.826 86.2371 133.844 86.0427 133.856 85.8467C133.868 85.6508 133.874 85.4538 133.874 85.2558C133.873 85.059 133.867 84.8637 133.855 84.67C133.844 84.4764 133.826 84.2852 133.801 84.0965C133.778 83.9072 133.748 83.7209 133.712 83.5376C133.676 83.3544 133.635 83.1744 133.587 82.9975C133.541 82.8264 133.49 82.6602 133.434 82.499C133.379 82.3379 133.318 82.1817 133.252 82.0305C133.186 81.8793 133.115 81.7336 133.041 81.5934C132.965 81.4543 132.885 81.3199 132.8 81.1903C132.716 81.0608 132.628 80.9392 132.536 80.8255C132.448 80.7146 132.353 80.6081 132.252 80.5063C132.157 80.41 132.055 80.3189 131.948 80.2336C131.846 80.1522 131.739 80.077 131.626 80.0085C131.515 79.9409 131.398 79.8811 131.277 79.8295C131.161 79.7801 131.041 79.7395 130.917 79.7081C130.675 79.6463 130.423 79.6232 130.173 79.6399" fill="#E4E4E4"/>
<path d="M83.1938 80.6973C83.7398 81.5284 84.6001 82.1471 85.6114 82.4357C86.6227 82.7244 87.7146 82.663 88.6797 82.2633C89.6449 81.8635 90.4161 81.1532 90.847 80.2672C91.2778 79.3812 91.3384 78.3812 91.0171 77.457L107.722 46.0361L99.7258 41.5981L85.2994 74.9735C85.2442 74.9931 85.1899 75.0137 85.1365 75.0352C85.083 75.0567 85.0297 75.0792 84.9767 75.1026C84.9236 75.126 84.8709 75.1506 84.8187 75.1764C84.7664 75.2023 84.7145 75.2295 84.663 75.2579C83.6805 75.8009 82.9737 76.6789 82.6982 77.6989C82.4226 78.7188 82.6008 79.7972 83.1935 80.697L83.1938 80.6973Z" fill="#9E616A"/>
<path d="M104.533 58.1521L92.6659 55.3673C92.6659 55.3673 93.0533 54.5654 93.6831 53.2369C94.3128 51.9084 95.1926 50.0558 96.1824 47.9525C97.1721 45.8491 98.2702 43.499 99.3428 41.1759C100.415 38.8529 101.458 36.5577 102.337 34.5682C103.216 32.5787 104.214 31.3872 105.217 30.7195C106.047 30.1418 107.092 29.8873 108.126 30.0113C108.93 30.1208 109.698 30.3885 110.378 30.7959C110.7 30.9793 111.002 31.1895 111.282 31.424L114.033 36.0052L104.533 58.1521Z" fill="#CCCCCC"/>
<path d="M9.56058 55.6638C9.27319 55.6832 8.98722 55.7174 8.70401 55.7661C8.41897 55.815 8.13712 55.8783 7.85974 55.9557C7.57813 56.0344 7.30138 56.1271 7.03072 56.2333C6.75371 56.3419 6.48309 56.4636 6.21997 56.5981C5.9625 56.7306 5.71087 56.8747 5.46507 57.0305C5.21927 57.1862 4.98054 57.3535 4.7489 57.5324C4.5175 57.7108 4.29293 57.9011 4.07519 58.1032C3.85744 58.3052 3.64766 58.5184 3.4458 58.7425C3.24395 58.9666 3.05265 59.1988 2.87189 59.4391C2.69114 59.6794 2.52156 59.9269 2.36317 60.1817C2.20625 60.437 2.05951 60.6992 1.92296 60.9684C1.7864 61.2375 1.66227 61.5129 1.55054 61.7946C1.4341 62.0867 1.33218 62.3818 1.24478 62.6801C1.15738 62.9783 1.08451 63.279 1.02617 63.5823C0.967574 63.8855 0.923632 64.1908 0.894335 64.4981C0.865038 64.8055 0.850395 65.1141 0.850403 65.4239C0.850403 65.7337 0.865047 66.0396 0.894335 66.3415C0.923623 66.6433 0.967565 66.9406 1.02617 67.2331C1.08451 67.5257 1.15739 67.813 1.24478 68.0951C1.33218 68.3772 1.43373 68.6535 1.54943 68.924C1.66214 69.1852 1.78628 69.4379 1.92184 69.682C2.05584 69.9237 2.203 70.159 2.36279 70.3871C2.52007 70.611 2.68988 70.8272 2.87152 71.035C3.05144 71.2415 3.24312 71.4392 3.4458 71.6273C3.64512 71.8121 3.85522 71.987 4.07519 72.151C4.29059 72.3117 4.51563 72.4611 4.74926 72.5987C5.21034 72.8704 5.70393 73.0928 6.22033 73.2616C6.74971 73.4348 7.29985 73.5492 7.85898 73.6026C8.13944 73.629 8.42135 73.6404 8.70327 73.6367C8.98971 73.633 9.27569 73.6144 9.55983 73.5811C9.84654 73.5476 10.131 73.4997 10.4119 73.4375C10.6937 73.3751 10.9716 73.2987 11.2443 73.2087C11.5201 73.1176 11.7905 73.0133 12.0543 72.8961C12.3231 72.7767 12.5851 72.6449 12.8394 72.5012C13.0869 72.3598 13.328 72.2082 13.5626 72.0463C13.7972 71.8845 14.0245 71.712 14.2445 71.5287C14.4645 71.3455 14.6769 71.1523 14.8817 70.9491C15.0866 70.7459 15.2835 70.5326 15.4724 70.3094C15.6626 70.0864 15.8416 69.8567 16.0094 69.6203C16.1773 69.3839 16.3344 69.1412 16.4809 68.8923C16.6274 68.6434 16.763 68.3887 16.8876 68.1282C17.0122 67.8677 17.1258 67.6017 17.2284 67.3303C17.3346 67.0493 17.4276 66.766 17.5073 66.4803C17.587 66.1945 17.6536 65.9067 17.7069 65.6169C17.7601 65.3268 17.8 65.0353 17.8269 64.7423C17.8537 64.4493 17.8671 64.155 17.8671 63.8595C17.8668 63.564 17.8534 63.2721 17.8269 62.9839C17.8003 62.6956 17.7603 62.4115 17.7069 62.1314C17.6538 61.8518 17.5873 61.5763 17.5073 61.3049C17.4274 61.0335 17.3344 60.7672 17.2284 60.506C17.1253 60.2532 17.0117 60.0081 16.8876 59.7705C16.7617 59.5337 16.6256 59.3038 16.4791 59.0811C16.1891 58.6408 15.8518 58.2281 15.4724 57.8491C15.2862 57.6627 15.0895 57.4853 14.8832 57.3175C14.6801 57.1529 14.4674 56.9985 14.246 56.8548C14.0268 56.7126 13.7991 56.5816 13.5641 56.4624C13.3293 56.3433 13.0873 56.2363 12.8394 56.1419C12.3275 55.9467 11.7922 55.8076 11.2447 55.7276C10.9691 55.6874 10.6912 55.662 10.4123 55.6515C10.1283 55.641 9.84375 55.6453 9.56022 55.6645" fill="#E4E4E4"/>
<path d="M9.56058 87.7156C9.27319 87.735 8.98722 87.7691 8.70401 87.8179C8.41897 87.8667 8.13712 87.93 7.85974 88.0075C7.57813 88.0862 7.30138 88.1789 7.03072 88.285C6.75371 88.3936 6.48309 88.5154 6.21997 88.6499C5.9625 88.7824 5.71087 88.9265 5.46507 89.0822C5.21927 89.2379 4.98054 89.4052 4.7489 89.5841C4.5175 89.7626 4.29293 89.9528 4.07519 90.1549C3.85744 90.357 3.64766 90.5701 3.4458 90.7942C3.24395 91.0184 3.05265 91.2506 2.87189 91.4909C2.69114 91.7311 2.52156 91.9787 2.36317 92.2335C2.20625 92.4888 2.05951 92.751 1.92296 93.0201C1.7864 93.2893 1.66227 93.5647 1.55054 93.8463C1.4341 94.1384 1.33218 94.4336 1.24478 94.7318C1.15738 95.0301 1.08451 95.3308 1.02617 95.634C0.967574 95.9373 0.923632 96.2426 0.894335 96.5499C0.865038 96.8572 0.850395 97.1658 0.850403 97.4757C0.850403 97.7855 0.865047 98.0913 0.894335 98.3932C0.923623 98.6951 0.967565 98.9923 1.02617 99.2849C1.08451 99.5774 1.15739 99.8648 1.24478 100.147C1.33218 100.429 1.43373 100.705 1.54943 100.976C1.66214 101.237 1.78628 101.49 1.92184 101.734C2.05584 101.975 2.203 102.211 2.36279 102.439C2.52007 102.663 2.68988 102.879 2.87152 103.087C3.05144 103.293 3.24312 103.491 3.4458 103.679C3.64512 103.864 3.85522 104.039 4.07519 104.203C4.29059 104.363 4.51563 104.513 4.74926 104.65C5.21035 104.922 5.70393 105.145 6.22033 105.313C6.74971 105.487 7.29985 105.601 7.85898 105.654C8.13944 105.681 8.42135 105.692 8.70327 105.688C8.98971 105.685 9.27569 105.666 9.55983 105.633C9.84654 105.599 10.131 105.551 10.4119 105.489C10.6937 105.427 10.9716 105.351 11.2443 105.26C11.5201 105.169 11.7905 105.065 12.0543 104.948C12.3231 104.828 12.5851 104.697 12.8394 104.553C13.0869 104.412 13.328 104.26 13.5626 104.098C13.7972 103.936 14.0245 103.764 14.2445 103.581C14.4645 103.397 14.6769 103.204 14.8817 103.001C15.0866 102.798 15.2835 102.584 15.4724 102.361C15.6626 102.138 15.8416 101.908 16.0094 101.672C16.1773 101.436 16.3344 101.193 16.4809 100.944C16.6274 100.695 16.763 100.44 16.8876 100.18C17.0122 99.9194 17.1258 99.6535 17.2284 99.3821C17.3346 99.1011 17.4276 98.8177 17.5073 98.532C17.587 98.2463 17.6536 97.9585 17.7069 97.6687C17.7601 97.3786 17.8 97.0871 17.8269 96.7941C17.8537 96.501 17.8671 96.2068 17.8671 95.9113C17.8668 95.6158 17.8534 95.3239 17.8269 95.0356C17.8003 94.7474 17.7603 94.4633 17.7069 94.1832C17.6538 93.9036 17.5873 93.6281 17.5073 93.3567C17.4274 93.0853 17.3344 92.819 17.2284 92.5578C17.1253 92.305 17.0117 92.0598 16.8876 91.8223C16.7617 91.5854 16.6256 91.3556 16.4791 91.1328C16.1891 90.6926 15.8518 90.2799 15.4724 89.9009C15.2862 89.7145 15.0895 89.537 14.8832 89.3693C14.6801 89.2047 14.4674 89.0502 14.246 88.9066C14.0268 88.7644 13.7991 88.6333 13.5641 88.5141C13.3293 88.395 13.0873 88.288 12.8394 88.1936C12.3275 87.9984 11.7922 87.8594 11.2447 87.7793C10.9691 87.7391 10.6912 87.7137 10.4123 87.7033C10.1283 87.6928 9.84375 87.6971 9.56022 87.7162" fill="#E4E4E4"/>
<path d="M9.5621 20.9415C9.27628 20.9352 8.9903 20.9437 8.70554 20.9671C8.42194 20.9905 8.14005 21.0287 7.86126 21.0817C7.58088 21.1353 7.30409 21.2036 7.03225 21.2863C6.75622 21.3699 6.48554 21.4677 6.22149 21.5792C5.96303 21.6882 5.71104 21.8096 5.46659 21.943C5.21972 22.0777 4.98068 22.224 4.75042 22.3815C4.51644 22.5414 4.29147 22.7122 4.07634 22.8929C3.85761 23.0768 3.64744 23.2718 3.44584 23.4777C3.24398 23.6839 3.05268 23.8992 2.87192 24.1235C2.69117 24.3479 2.5216 24.5804 2.3632 24.8212C2.20554 25.0651 2.05843 25.315 1.92188 25.571C1.78532 25.8269 1.66119 26.0913 1.54946 26.3641C1.43376 26.6453 1.33221 26.9311 1.24481 27.2216C1.15742 27.5121 1.08454 27.8064 1.0262 28.1044C0.967605 28.4033 0.923663 28.7048 0.894367 29.0087C0.86507 29.3126 0.850426 29.6195 0.850435 29.9293C0.850435 30.2387 0.865078 30.5456 0.894367 30.8499C0.923655 31.1543 0.967597 31.4554 1.0262 31.7532C1.08455 32.051 1.15742 32.3448 1.24481 32.6346C1.33221 32.9245 1.43376 33.2097 1.54946 33.4905C1.66218 33.7617 1.78631 34.0253 1.92188 34.2815C2.05843 34.5368 2.2059 34.7845 2.36429 35.0245C2.52268 35.2646 2.69227 35.4961 2.87303 35.7191C3.05353 35.9428 3.24483 36.1569 3.44693 36.3615C3.64904 36.5661 3.85883 36.7593 4.07632 36.9411C4.29032 37.1213 4.51418 37.2913 4.74705 37.4506C4.97734 37.6066 5.21639 37.7515 5.46322 37.8846C5.70772 38.0166 5.95971 38.1365 6.21812 38.244C6.48224 38.3539 6.75293 38.4501 7.02888 38.5321C7.5719 38.693 8.13337 38.796 8.70217 38.839C9.27173 38.8823 9.84481 38.8664 10.4105 38.7916C10.6909 38.7545 10.9688 38.7028 11.2428 38.6368C11.5176 38.5705 11.788 38.4902 12.0528 38.3961C12.3208 38.301 12.5829 38.1925 12.8379 38.0711C13.0866 37.9529 13.3285 37.823 13.5626 37.6821C13.7982 37.5402 14.0257 37.3876 14.2445 37.2248C14.4645 37.0612 14.6769 36.8868 14.8818 36.7018C15.0866 36.5167 15.2835 36.321 15.4724 36.1146C15.6626 35.9082 15.8416 35.6943 16.0095 35.4729C16.1773 35.2515 16.3345 35.0228 16.4809 34.7869C16.6279 34.5509 16.7635 34.3082 16.8876 34.0589C17.0118 33.8095 17.1254 33.5541 17.2284 33.2927C17.3347 33.0213 17.4276 32.7462 17.5073 32.4675C17.587 32.1888 17.6536 31.907 17.707 31.6219C17.7601 31.3357 17.8001 31.0473 17.8269 30.7565C17.8537 30.4658 17.8671 30.1727 17.8671 29.8771C17.8669 29.5819 17.8534 29.2888 17.8269 28.9981C17.8003 28.7074 17.7603 28.4197 17.707 28.1351C17.6538 27.8503 17.5873 27.5686 17.5073 27.2902C17.4274 27.0117 17.3344 26.7371 17.2284 26.4664C17.1254 26.2047 17.0118 25.9496 16.8876 25.7009C16.7635 25.4522 16.6273 25.21 16.4791 24.9743C16.3326 24.7406 16.1754 24.5132 16.0076 24.2923C15.8397 24.0713 15.6613 23.8586 15.4724 23.654C15.2847 23.4496 15.0883 23.2554 14.8832 23.0713C14.6782 22.8871 14.4658 22.714 14.246 22.552C14.0274 22.3901 13.7999 22.2386 13.5645 22.0978C13.3303 21.9581 13.0884 21.8296 12.8398 21.7128C12.5847 21.5929 12.3226 21.4859 12.0547 21.3923C11.7898 21.2998 11.5193 21.221 11.2447 21.1564C10.9706 21.0919 10.6927 21.0418 10.4123 21.0063C10.1298 20.9707 9.84533 20.9497 9.56022 20.9436M9.56022 20.0905C10.8113 20.1218 12.0383 20.4126 13.1489 20.9409C14.2525 21.4692 15.2308 22.1927 16.027 23.0696C16.8592 23.9833 17.5074 25.0253 17.9412 26.1469C18.8702 28.5609 18.8702 31.1931 17.9412 33.6071C17.5069 34.7319 16.8589 35.7775 16.027 36.6957C15.2306 37.5766 14.2525 38.3053 13.1485 38.84C12.0394 39.3746 10.8126 39.6727 9.55986 39.7119C8.29943 39.7498 7.04643 39.5211 5.89821 39.0436C4.73904 38.5575 3.70203 37.8574 2.85217 36.9872C1.9497 36.0657 1.24338 34.9978 0.769595 33.8386C-0.256532 31.3151 -0.256532 28.5378 0.769595 26.0142C1.24384 24.8516 1.95003 23.7797 2.85217 22.8534C3.70177 21.9783 4.73851 21.2723 5.89821 20.7789C7.04554 20.2947 8.29918 20.0587 9.56209 20.0891L9.56022 20.0905Z" fill="#E6474B"/>
<path d="M9.56137 32.3128L6.62781 26.7174L7.32423 26.3021L9.7405 30.8988L19.886 19.9807L20.5001 20.5798L9.56137 32.3128Z" fill="#E6474B"/>
<path d="M116.326 142.781L109.063 142.755L111.405 160.129L116.326 160.152V142.781Z" fill="#9E616A"/>
<path d="M117.58 164.523L101.723 164.446V164.263C101.723 163.89 101.763 163.519 101.842 163.153C101.998 162.432 102.308 161.746 102.756 161.136C103.211 160.518 103.793 159.987 104.471 159.574C105.14 159.167 105.89 158.885 106.678 158.746C107.078 158.675 107.484 158.641 107.891 158.643L117.58 158.687V164.523Z" fill="#2F2E41"/>
<path d="M93.0727 142.699L85.8313 142.673L88.1656 160.023L93.0727 160.045V142.699Z" fill="#9E616A"/>
<path d="M94.324 164.41L78.5088 164.334V164.151C78.5087 163.779 78.5483 163.408 78.6272 163.043C78.7827 162.323 79.0925 161.638 79.5389 161.029C79.9921 160.411 80.5734 159.88 81.2498 159.468C81.9167 159.061 82.6651 158.78 83.4516 158.641C83.8503 158.571 84.2555 158.537 84.6616 158.539L94.324 158.582V164.41Z" fill="#2F2E41"/>
<path d="M92.7651 71.6877L80.588 113.294L85.0451 153.177L94.9143 153.426L92.7654 117.414L105.077 99.4428L107.748 153.672L116.7 153.092L121.68 106.466C123.371 102.826 124.612 99.0228 125.378 95.1291C125.98 92.0728 126.273 88.9721 126.253 85.8665C126.243 83.7757 126.067 81.6884 125.728 79.6208C125.606 78.8503 125.442 78.086 125.236 77.3308L121.605 73.961L92.7651 71.6877Z" fill="#2F2E41"/>
<path d="M108.899 78.6464C106.851 78.6464 104.929 78.5862 103.187 78.4674C101.407 78.3556 99.6368 78.1422 97.886 77.8285C96.3953 77.5736 94.9436 77.1552 93.5623 76.5822C92.4503 76.1425 91.4834 75.4438 90.7579 74.5558L90.6749 74.4453L94.0032 54.6132L97.5924 32.3144C97.8287 30.8388 98.6493 29.4942 99.8982 28.5366C101.147 27.579 102.737 27.0753 104.365 27.1214L115.606 27.4367C116.449 27.4604 117.278 27.6388 118.044 27.9613C118.81 28.2838 119.498 28.7439 120.067 29.3142C120.635 29.8846 121.073 30.5537 121.353 31.2818C121.634 32.0099 121.753 32.7821 121.701 33.5528L120.226 55.7293L125.669 77.6039L125.283 77.6532C125.128 77.672 124.531 77.7442 123.595 77.8406C122.372 77.9664 121.123 78.0799 119.883 78.1778C118.129 78.3162 116.412 78.4251 114.781 78.5014C112.713 78.598 110.73 78.6447 108.899 78.6464Z" fill="#CCCCCC"/>
<path d="M102.661 23.1808C102.658 23.1808 102.655 23.1808 102.652 23.1808C102.416 23.1806 102.183 23.138 101.965 23.0552C101.747 22.9725 101.549 22.8512 101.383 22.6985C101.216 22.5457 101.084 22.3643 100.994 22.1648C100.904 21.9653 100.857 21.7514 100.857 21.5355V12.3599C100.856 10.716 101.215 9.08852 101.914 7.57429C103.283 4.61933 105.844 2.26196 109.064 0.993451C111.101 0.19363 113.323 -0.131239 115.53 0.0479323C117.738 0.227104 119.862 0.904721 121.714 2.02011C123.565 3.1355 125.085 4.65384 126.138 6.43916C127.191 8.22448 127.744 10.2211 127.748 12.2501V21.4397C127.748 21.6609 127.7 21.8798 127.605 22.0835C127.421 22.4808 127.076 22.7974 126.642 22.9673C126.42 23.0542 126.181 23.0993 125.939 23.0999L102.66 23.1808H102.661Z" fill="#2F2E41"/>
<path d="M120.373 9.21302C121.311 10.7811 121.72 12.5684 121.549 14.3493C121.378 16.1301 120.634 17.8246 119.412 19.2187C118.19 20.6128 116.544 21.644 114.682 22.182C112.82 22.7201 110.825 22.7409 108.95 22.2417C107.709 21.9151 106.55 21.3661 105.542 20.6266C104.534 19.8872 103.696 18.9719 103.077 17.9338C102.142 16.3664 101.734 14.5806 101.906 12.8013C102.077 11.0221 102.82 9.32925 104.041 7.93615C105.262 6.54305 106.906 5.51211 108.766 4.97331C110.626 4.43451 112.619 4.41197 114.493 4.90854C115.735 5.23399 116.895 5.78209 117.904 6.52106C118.914 7.26002 119.753 8.17515 120.373 9.21337V9.21302Z" fill="#9E616A"/>
<path d="M97.6788 13.1066C97.6776 11.8065 97.9617 10.5194 98.5145 9.3218C99.5968 6.98517 101.622 5.12119 104.169 4.11851C105.476 3.60595 106.881 3.33924 108.303 3.33426L110.309 3.32505C110.331 3.32493 110.354 3.32488 110.376 3.32489C111.765 3.32567 113.14 3.57693 114.423 4.0643C115.706 4.55168 116.872 5.26563 117.853 6.1654C118.835 7.06517 119.613 8.13314 120.144 9.30832C120.675 10.4835 120.947 11.7429 120.947 13.0146V13.1984L116.703 13.214L115.256 9.51308L114.967 13.2212L112.775 13.2301L112.046 11.3629L111.899 13.2324L97.6807 13.2907L97.6788 13.1066Z" fill="#2F2E41"/>
<path d="M80.5958 32.4093C79.9429 32.5556 79.3323 32.8295 78.806 33.2124C78.3947 33.5103 78.043 33.8714 77.7666 34.2794C77.2215 35.087 76.9813 36.0361 77.083 36.9809C77.1343 37.4582 77.2757 37.9237 77.5009 38.3567C77.7784 38.8963 78.1779 39.3759 78.6728 39.7638C79.1677 40.1517 79.7469 40.4391 80.372 40.607C80.9972 40.7748 81.6541 40.8194 82.2995 40.7377C82.9449 40.656 83.564 40.4499 84.1159 40.1329C84.1566 40.1089 84.1969 40.0845 84.2367 40.0597C84.2766 40.035 84.3158 40.0097 84.3543 39.984C84.393 39.9581 84.431 39.9319 84.4684 39.9053C84.5058 39.8787 84.5429 39.8517 84.5797 39.8242L107.995 47.4542C108.715 47.6888 109.499 47.7028 110.229 47.4941C110.959 47.2854 111.595 46.8652 112.042 46.2969L117.593 39.2598L110.882 35.122L107.36 38.7852L85.9308 34.8824C85.9075 34.8315 85.8832 34.781 85.8582 34.7306C85.8332 34.6803 85.807 34.6302 85.7798 34.5803C85.7521 34.5306 85.7235 34.4811 85.6942 34.4318C85.6648 34.3826 85.6338 34.3337 85.601 34.2853C85.0897 33.529 84.3302 32.9402 83.4311 32.6032C82.5321 32.2663 81.5396 32.1984 80.5958 32.4093Z" fill="#9E616A"/>
<path d="M107.737 36.475C108.438 35.6747 109.417 34.6355 110.412 33.6049C111.407 32.5742 112.417 31.5527 113.179 30.7886C113.94 30.0244 114.453 29.5179 114.453 29.5179C115.156 28.5447 116.205 27.8242 117.422 27.479C118.64 27.1338 119.95 27.185 121.131 27.624C122.312 28.063 123.29 28.8627 123.9 29.8873C124.51 30.9119 124.714 32.0982 124.476 33.2446C124.341 33.9047 124.061 34.5327 123.653 35.0911C123.653 35.0911 122.89 36.0063 121.736 37.3724C120.583 38.7385 119.041 40.557 117.484 42.3649C115.928 44.1728 114.357 45.9713 113.145 47.2989C111.934 48.6265 111.081 49.4842 110.961 49.4107L106.735 37.9088C106.614 37.8354 107.037 37.2753 107.737 36.475Z" fill="#CCCCCC"/>
<path d="M110.246 22.8916C110.179 23.1882 110.205 23.496 110.32 23.7799C110.378 23.9251 110.458 24.0623 110.557 24.1873C110.642 24.2938 110.741 24.3908 110.851 24.4761C111.176 24.7281 111.589 24.8655 112.016 24.8638C112.042 24.8636 112.069 24.8629 112.095 24.8618C112.122 24.8606 112.148 24.8589 112.175 24.8567C112.202 24.8546 112.228 24.8519 112.255 24.8485C112.282 24.8451 112.308 24.8412 112.335 24.8369L113.841 24.5863L115.916 20.5287V24.2453L122.763 23.1167V7.34482L111.284 7.39528L111.568 7.69705C112.509 8.70958 113.128 9.94043 113.355 11.2541C113.578 12.5847 113.55 13.9404 113.272 15.2623C113.003 16.5999 112.594 17.9107 112.05 19.1767C111.575 20.2982 111.03 21.3938 110.418 22.4579C110.338 22.5944 110.281 22.7404 110.246 22.8916Z" fill="#2F2E41"/>
<path d="M30.735 165H172.628C172.726 165 172.821 164.964 172.891 164.9C172.961 164.836 173 164.749 173 164.659C173 164.569 172.961 164.482 172.891 164.418C172.821 164.354 172.726 164.318 172.628 164.318H30.735C30.6363 164.318 30.5415 164.354 30.4717 164.418C30.4018 164.482 30.3626 164.569 30.3626 164.659C30.3626 164.749 30.4018 164.836 30.4717 164.9C30.5415 164.964 30.6363 165 30.735 165Z" fill="#CACACA"/>
</g>
<defs>
<clipPath id="clip0_11_82">
<rect width="173" height="165" fill="white"/>
</clipPath>
</defs>
</svg>
