<svg width="173" height="173" viewBox="0 0 173 173" fill="none" xmlns="http://www.w3.org/2000/svg">
<g clip-path="url(#clip0_11_378)">
<path d="M173 86.5C173 92.2747 172.434 97.9185 171.353 103.376C171.016 105.087 170.627 106.779 170.189 108.453C169.324 111.769 168.264 115.005 167.025 118.153C166.857 118.585 166.683 119.015 166.504 119.445C166.064 120.515 165.602 121.575 165.119 122.622C164.863 123.182 164.598 123.74 164.326 124.296C163.309 126.391 162.206 128.442 161.024 130.439C159.681 132.713 158.236 134.924 156.693 137.057C153.933 140.886 150.865 144.479 147.528 147.798C131.886 163.376 110.317 173 86.5 173C62.5737 173 40.914 163.285 25.2559 147.584C22.0281 144.348 19.054 140.859 16.3709 137.145C13.2767 132.871 10.5642 128.3 8.28426 123.484C7.90781 122.694 7.54473 121.896 7.19497 121.092C7.14961 120.993 7.10956 120.897 7.06683 120.798C6.53021 119.562 6.02565 118.31 5.54776 117.045C5.12057 115.913 4.71476 114.767 4.33568 113.611C3.77504 111.913 3.26511 110.194 2.81126 108.451C2.44283 107.046 2.10912 105.626 1.81278 104.195C0.734182 99.0131 0.120126 93.6629 0.018707 88.1873C0.00534484 87.6266 0 87.0633 0 86.5C0 83.9717 0.109436 81.4702 0.320357 78.998C0.395118 78.1383 0.480569 77.2813 0.579315 76.4297C1.67127 67.0108 4.27695 58.0538 8.14542 49.8069C9.14123 47.6845 10.2198 45.6101 11.3785 43.5864C15.6661 36.0977 21.0403 29.3112 27.2875 23.4458C28.1606 22.6235 29.0496 21.8226 29.9573 21.0403C45.1188 7.92917 64.883 0 86.5 0C134.273 0 173 38.7274 173 86.5Z" fill="#F2F2F2"/>
<path d="M130.684 62.2179H127.451V85.1736H130.684V62.2179Z" fill="#3F3D56"/>
<path d="M130.692 61.9276L130.575 62.2186L129.475 64.923L127.451 64.1008L124.541 62.9207C106.48 57.1235 83.6537 54.157 74.9587 42.7961L74.3927 42.5665C70.7541 45.5856 68.2275 45.7621 68.0307 39.9822L67.4646 39.7526C52.6248 42.8038 39.7914 34.0911 27.2875 23.4458C28.1606 22.6235 29.0496 21.8225 29.9573 21.0403C47.5363 21.5331 62.5269 24.5832 68.3991 36.6423L68.9678 36.8746L75.7996 39.6458L76.371 39.8781C91.5467 36.6779 108.596 48.2132 125.663 59.8852L130.692 61.9276Z" fill="#3F3D56"/>
<path d="M156.693 137.057C153.933 140.886 150.865 144.479 147.528 147.798C109.07 148.548 62.7258 148.454 25.2559 147.584C22.0281 144.348 19.054 140.859 16.3709 137.145C24.1532 136.929 32.4188 136.758 40.9914 136.625C44.3846 136.569 47.8286 136.523 51.31 136.48C54.7673 136.443 58.262 136.408 61.7834 136.379H61.7861C93.7831 136.12 128.009 136.358 156.693 137.057Z" fill="#D0CDE1"/>
<path d="M170.189 108.453C169.324 111.769 168.264 115.005 167.025 118.153C166.857 118.585 166.683 119.015 166.504 119.445H162.369V108.453H170.189Z" fill="#3F3D56"/>
<path d="M167.025 118.153C166.857 118.585 166.683 119.015 166.504 119.445C166.064 120.515 165.602 121.575 165.119 122.622C164.863 123.182 164.598 123.74 164.326 124.296C163.309 126.391 162.206 128.442 161.024 130.439C119.701 135.254 81.459 136.407 49.2089 130.439V118.153H167.025Z" fill="#3F3D56"/>
<path d="M165.119 103.544V122.622C164.863 123.182 164.598 123.74 164.326 124.296C152.59 118.566 141.86 119.249 131.816 124.296V82.426C139.948 77.5649 148.218 76.7648 156.712 82.426L164.516 102.025L165.119 103.544Z" fill="#D0CDE1"/>
<path d="M136.989 85.0119H151.215V99.238C146.525 101.743 141.782 101.69 136.989 99.238C134.518 94.4959 134.518 89.7539 136.989 85.0119Z" fill="white"/>
<path d="M161.885 99.3997C160.015 101.505 156.586 100.751 152.832 99.3997V85.1737H156.712L161.885 99.3997Z" fill="white"/>
<path d="M140.869 107.321H137.636V113.464H140.869V107.321Z" fill="#3F3D56"/>
<path d="M155.58 94.2266H155.742C157.438 94.2266 158.813 95.6017 158.813 97.2981V97.2981C158.813 98.9945 157.438 100.37 155.742 100.37H155.58V94.2266Z" fill="#3F3D56"/>
<path d="M35.3052 118.152H35.4668C37.1632 118.152 38.5384 119.527 38.5384 121.224V121.224C38.5384 122.92 37.1632 124.295 35.4668 124.295H35.3052V118.152Z" fill="#3F3D56"/>
<path d="M171.353 103.375C171.016 105.087 170.627 106.779 170.189 108.453C169.324 111.769 168.264 115.005 167.025 118.153C166.857 118.585 166.683 119.015 166.504 119.445C166.064 120.515 165.602 121.575 165.119 122.622C164.863 123.182 164.598 123.74 164.326 124.296H162.855L162.681 119.445L162.636 118.153L162.369 110.627L162.046 101.539L164.516 102.025L171.353 103.375Z" fill="#D0CDE1"/>
<path d="M51.3095 142.24C58.0949 142.24 63.5956 136.739 63.5956 129.953C63.5956 123.168 58.0949 117.667 51.3095 117.667C44.524 117.667 39.0233 123.168 39.0233 129.953C39.0233 136.739 44.524 142.24 51.3095 142.24Z" fill="#3F3D56"/>
<path d="M51.3095 136.42C54.8808 136.42 57.7759 133.525 57.7759 129.953C57.7759 126.382 54.8808 123.487 51.3095 123.487C47.7382 123.487 44.8431 126.382 44.8431 129.953C44.8431 133.525 47.7382 136.42 51.3095 136.42Z" fill="#D0CDE1"/>
<path d="M132.786 116.697H132.786V76.6056H125.996C124.649 79.1446 123.965 83.0057 123.722 87.7445C122.889 103.94 109.629 116.697 93.412 116.697H35.1435V119.607H125.419C125.61 121.599 125.805 123.597 125.996 125.589L132.786 125.588V119.607H132.786V116.697Z" fill="#3F3D56"/>
<path d="M80.2833 103.276L82.107 101.936L93.3091 117.179L91.4853 118.519C83.0724 117.481 79.3776 112.366 80.2833 103.276Z" fill="#3F3D56"/>
<path d="M98.9501 51.7349L101.018 52.6547L78.6469 118.529L76.5789 117.609C79.3514 99.5576 87.8699 66.5309 98.9501 51.7349Z" fill="#3F3D56"/>
<path d="M157.52 100.046H154.287V101.34H157.52V100.046Z" fill="#3F3D56"/>
<path d="M128.481 81.0604C128.483 81.0363 128.484 81.0148 128.48 80.9924C128.46 80.8126 128.301 80.6865 128.124 80.7063L126.04 80.9406L52.8376 83.587L52.1902 83.6582C52.0491 83.6736 51.935 83.7806 51.9096 83.9225C51.8781 84.0986 51.9945 84.2659 52.1706 84.2975L126.916 93.6145C127.095 93.6328 127.251 93.5009 127.27 93.3224L128.481 81.0604ZM54.4736 84.0535L125.921 81.6028L127.798 81.3937L126.66 92.9121L54.4736 84.0535Z" fill="#3F3D56"/>
<path d="M75.7996 39.6458L74.3927 42.5665L55.3253 82.0949L68.0307 39.9822L68.9677 36.8746L68.3991 36.6423L67.4646 39.7526L54.3562 83.4938L54.2174 84.1292C54.1853 84.2681 54.2494 84.4096 54.3775 84.479C54.5324 84.5671 54.7299 84.511 54.8154 84.3535L74.9587 42.7961L76.371 39.8781L75.7996 39.6458Z" fill="#3F3D56"/>
<path d="M13.557 84.3989L12.6199 75.554L12.3636 73.1165L11.0394 60.6007L10.2359 52.9946C10.2198 52.8317 10.081 52.7062 9.91547 52.7062C9.74995 52.7062 9.61111 52.8291 9.59241 52.9919L8.71939 60.6007L7.11754 74.5902L6.82124 77.1772L5.96425 84.6525L4.77085 95.0726C4.76818 95.0832 4.76818 95.0939 4.76818 95.1073C4.76551 95.2835 4.90968 95.4303 5.08857 95.433L8.97571 95.4703L14.3713 95.5211H14.374C14.3846 95.5211 14.3953 95.5184 14.406 95.5184C14.5849 95.4997 14.713 95.3395 14.6943 95.1633L13.557 84.3989H13.557ZM10.3587 94.8349L8.81286 94.8216L5.45429 94.7896L6.42611 86.3051V86.3024L7.49402 76.9903L7.79032 74.4007L9.3735 60.6007L9.90214 55.982L10.3907 60.6007L11.7335 73.2927L11.9898 75.7302L12.9242 84.5751L14.0135 94.8696L10.3587 94.8349H10.3587Z" fill="#3F3D56"/>
<path d="M61.415 97.171L59.6743 98.1214L54.7006 99.5124L50.5304 100.682L41.4746 103.215L37.3045 104.382C24.3432 102.256 17.7984 106.731 11.6108 111.574L7.4406 112.741L4.33568 113.611C3.77503 111.913 3.2651 110.194 2.81126 108.451C2.44283 107.046 2.10911 105.626 1.81277 104.195C0.734182 99.0131 0.120126 93.6629 0.018707 88.1873C0.00534484 87.6266 0 87.0633 0 86.5C0 83.9717 0.109436 81.4702 0.320357 78.998C0.395118 78.1383 0.480569 77.2813 0.579315 76.4297L7.11754 74.5902L7.79032 74.4007L11.7336 73.2927L12.3636 73.1165L22.3725 70.2999C30.0675 69.7564 35.9293 73.0983 40.922 78.2825C40.922 78.2825 48.0289 76.16 53.2589 79.9057C54.9141 81.0937 56.3798 82.8691 57.373 85.4881L58.23 87.9577L61.415 97.171H61.415Z" fill="#E6474B"/>
<path d="M45.7826 110.228C50.7909 110.228 54.8508 106.168 54.8508 101.16C54.8508 96.1514 50.7909 92.0914 45.7826 92.0914C40.7743 92.0914 36.7144 96.1514 36.7144 101.16C36.7144 106.168 40.7743 110.228 45.7826 110.228Z" fill="#3F3D56"/>
<path d="M45.7826 105.932C48.4185 105.932 50.5554 103.796 50.5554 101.16C50.5554 98.5237 48.4185 96.3868 45.7826 96.3868C43.1467 96.3868 41.0098 98.5237 41.0098 101.16C41.0098 103.796 43.1467 105.932 45.7826 105.932Z" fill="#D0CDE1"/>
<path d="M11.7603 113.222C11.7603 116.222 10.3026 118.881 8.05462 120.531C7.77966 120.734 7.49134 120.921 7.19497 121.092C7.14961 120.993 7.10955 120.897 7.06683 120.798C6.53021 119.562 6.02565 118.31 5.54776 117.045C5.12057 115.913 4.71476 114.767 4.33568 113.611C3.77504 111.913 3.2651 110.194 2.81126 108.451C2.44283 107.046 2.10911 105.626 1.81277 104.195C2.1011 104.166 2.39476 104.152 2.69113 104.152C7.13625 104.152 10.8366 107.351 11.6108 111.574C11.7095 112.108 11.7603 112.658 11.7603 113.222Z" fill="#3F3D56"/>
<path d="M7.46462 113.222C7.46462 114.786 6.71177 116.174 5.54776 117.045C5.12057 115.913 4.71477 114.767 4.33568 113.611C3.77504 111.913 3.26511 110.194 2.81126 108.451C5.23272 108.509 7.20299 110.368 7.44061 112.741C7.45661 112.899 7.46463 113.059 7.46463 113.222H7.46462Z" fill="#D0CDE1"/>
<path d="M34.5099 78.5345L6.45081 86.3884L4.08675 77.9421C7.6197 75.1829 14.5709 73.9551 21.9816 72.9331L34.5099 78.5345V78.5345Z" fill="white"/>
<path d="M3.01416 87.349L0.018707 88.1873C0.00534484 87.6266 0 87.0633 0 86.5C0 83.9717 0.109436 81.4702 0.320357 78.998L0.651404 78.9045C3.5777 80.8246 4.31745 83.6595 3.01416 87.349Z" fill="white"/>
<path d="M9.6456 92.2866L8.21402 92.6873L8.97536 95.4073L10.4069 95.0066L9.6456 92.2866Z" fill="#3F3D56"/>
<path d="M58.2288 87.9581C55.7664 88.9437 52.9713 87.7464 51.9858 85.2841C51.2327 83.4026 51.7418 81.251 53.2581 79.9064C54.9133 81.0934 56.3811 82.8685 57.3738 85.4882L58.2288 87.9581H58.2288Z" fill="#3F3D56"/>
<path d="M8.14542 49.8069C9.14123 47.6844 10.2198 45.61 11.3785 43.5864V60.6007H8.14542V49.8069Z" fill="#3F3D56"/>
<path d="M129.068 67.391C131.568 67.391 133.594 65.3644 133.594 62.8645C133.594 60.3646 131.568 58.3381 129.068 58.3381C126.568 58.3381 124.541 60.3646 124.541 62.8645C124.541 65.3644 126.568 67.391 129.068 67.391Z" fill="#3F3D56"/>
</g>
<defs>
<clipPath id="clip0_11_378">
<rect width="173" height="173" fill="white"/>
</clipPath>
</defs>
</svg>
