<svg width="246" height="165" viewBox="0 0 246 165" fill="none" xmlns="http://www.w3.org/2000/svg">
<g clip-path="url(#clip0_11_318)">
<path d="M203.68 164.765L204.346 164.751C204.088 156.911 203.298 149.101 201.982 141.381C199.103 124.852 194.316 113.997 187.754 109.117L187.371 109.694C202.701 121.094 203.672 164.329 203.68 164.765Z" fill="#2F2E41"/>
<path d="M195.358 164.596L196.023 164.582C196.009 163.801 195.593 145.398 188.752 140.311L188.37 140.888C194.935 145.77 195.354 164.408 195.358 164.596Z" fill="#2F2E41"/>
<path d="M183.584 109.758C185.422 109.758 186.913 108.179 186.913 106.232C186.913 104.285 185.422 102.707 183.584 102.707C181.746 102.707 180.255 104.285 180.255 106.232C180.255 108.179 181.746 109.758 183.584 109.758Z" fill="#E6474B"/>
<path d="M185.232 140.078C187.071 140.078 188.561 138.5 188.561 136.553C188.561 134.606 187.071 133.027 185.232 133.027C183.394 133.027 181.904 134.606 181.904 136.553C181.904 138.5 183.394 140.078 185.232 140.078Z" fill="#E6474B"/>
<path d="M196.909 111.871C196.284 116.103 197.914 119.889 197.914 119.889C197.914 119.889 200.559 116.812 201.185 112.58C201.81 108.348 200.18 104.563 200.18 104.563C200.18 104.563 197.535 107.639 196.909 111.871Z" fill="#2F2E41"/>
<path d="M186.028 122.15C189.854 123.54 193.658 122.499 193.658 122.499C193.658 122.499 191.258 119.204 187.432 117.814C183.607 116.425 179.803 117.466 179.803 117.466C179.803 117.466 182.203 120.76 186.028 122.15Z" fill="#2F2E41"/>
<path d="M185.905 149.002C187.637 149.578 189.481 149.662 191.253 149.246C190.128 147.729 188.613 146.589 186.89 145.963C185.167 145.337 183.31 145.252 181.542 145.718C182.7 147.198 184.205 148.331 185.905 149.002Z" fill="#2F2E41"/>
<path d="M108.219 54.717L86.757 42.897C86.757 42.897 79.5499 34.4907 75.0237 30.6938C70.4974 26.8968 69.1041 29.6862 69.1041 29.6862L67.2014 33.0448L71.7996 39.8182L84.2201 50.9578L106.413 60.1645C106.76 60.7664 107.262 61.2517 107.859 61.5639C108.456 61.8762 109.124 62.0025 109.787 61.9284C110.449 61.8542 111.078 61.5826 111.6 61.145C112.122 60.7074 112.517 60.1218 112.737 59.4563C112.958 58.7908 112.996 58.0727 112.846 57.3854C112.697 56.698 112.366 56.0697 111.893 55.5734C111.42 55.0771 110.823 54.7331 110.173 54.5815C109.523 54.4299 108.845 54.4769 108.219 54.717Z" fill="#9F616A"/>
<path d="M52.3947 44.4942L51.124 36.2611L47.5362 35.3111C47.5362 35.3111 44.6888 34.3822 44.0233 40.4568C43.3577 46.5314 43.8737 57.8731 43.8737 57.8731L36.5893 82.3042C35.9834 82.6027 35.47 83.0773 35.1089 83.6729C34.7478 84.2685 34.5539 84.9604 34.5498 85.6682C34.5456 86.376 34.7314 87.0704 35.0855 87.6707C35.4396 88.271 35.9474 88.7523 36.5497 89.0588C37.1521 89.3652 37.8243 89.4841 38.488 89.4016C39.1517 89.3191 39.7797 89.0386 40.2987 88.5928C40.8177 88.147 41.2065 87.5541 41.4197 86.8833C41.6329 86.2126 41.6618 85.4914 41.5031 84.8039L51.0493 61.673L52.3947 44.4942Z" fill="#9F616A"/>
<path d="M82.0705 160.034L86.7651 160.034L88.9987 140.855L82.0695 140.855L82.0705 160.034Z" fill="#9F616A"/>
<path d="M80.8728 158.411L90.1187 158.41H90.1191C91.6817 158.41 93.1804 159.068 94.2853 160.238C95.3903 161.408 96.0111 162.996 96.0112 164.651V164.854L80.8731 164.854L80.8728 158.411Z" fill="#2F2E41"/>
<path d="M30.8635 160.034L35.5585 160.034L37.7918 140.855L30.8629 140.855L30.8635 160.034Z" fill="#9F616A"/>
<path d="M29.6661 158.411L38.9119 158.41H38.9123C40.4749 158.41 41.9736 159.068 43.0785 160.238C44.1835 161.408 44.8043 162.996 44.8044 164.651V164.854L29.6663 164.854L29.6661 158.411Z" fill="#2F2E41"/>
<path d="M54.0411 28.0478L46.2541 35.0883L52.6447 56.5075L54.0867 61.2904C54.0867 61.2904 45.2819 69.8885 39.834 93.9069C34.3862 117.925 25.4741 149.84 25.4741 149.84L44.2859 155.543L59.5906 101.211L77.5926 143.836L79.671 156.444L95.6912 151.441L91.9122 119.822L73.0175 65.0898L74.9803 50.5812C74.9803 50.5812 77.9276 43.3394 72.8074 35.6724L71.2013 28.4681L65.448 26.9673L54.0411 28.0478Z" fill="#2F2E41"/>
<path d="M66.9777 24.2203H45.9244C45.4913 24.2198 45.0762 24.0374 44.7699 23.713C44.4637 23.3887 44.2915 22.949 44.291 22.4903V12.879C44.291 9.4633 45.5721 6.18746 47.8526 3.77216C50.133 1.35687 53.226 -3.05176e-05 56.4511 -3.05176e-05C59.6761 -3.05176e-05 62.7691 1.35687 65.0495 3.77216C67.33 6.18746 68.6112 9.4633 68.6112 12.879V22.4903C68.6107 22.949 68.4384 23.3887 68.1322 23.713C67.826 24.0374 67.4108 24.2198 66.9777 24.2203Z" fill="#2F2E41"/>
<path d="M66.7727 19.0833C69.1344 14.5074 67.5466 8.77016 63.2262 6.26876C58.9058 3.76737 53.4888 5.44905 51.127 10.0249C48.7653 14.6008 50.3531 20.3381 54.6735 22.8395C58.9939 25.3409 64.4109 23.6592 66.7727 19.0833Z" fill="#9F616A"/>
<path d="M71.488 13.8402H58.6144L58.4823 11.8827L57.8223 13.8402H55.84L55.5784 9.96041L54.2702 13.8402H50.4347V13.648C50.4375 10.9469 51.4519 8.35735 53.2552 6.4474C55.0585 4.53745 57.5035 3.46311 60.0537 3.46005H61.8688C64.4191 3.4631 66.8641 4.53744 68.6674 6.44739C70.4707 8.35734 71.4851 10.9469 71.488 13.648V13.8402Z" fill="#2F2E41"/>
<path d="M58.509 26.0145C58.4121 26.0144 58.3154 26.0053 58.2199 25.9874L48.7933 24.2259V7.72531H59.1702L58.9133 8.04256C55.3389 12.4577 58.0318 19.617 59.9551 23.4915C60.0969 23.7753 60.1601 24.0957 60.1375 24.4158C60.1149 24.736 60.0073 25.0429 59.8273 25.3011C59.6765 25.522 59.4783 25.7018 59.2492 25.8258C59.02 25.9498 58.7664 26.0144 58.509 26.0145Z" fill="#2F2E41"/>
<path d="M136.466 112.519L53.8513 143.456C51.8086 144.218 49.564 144.091 47.6097 143.102C45.6554 142.114 44.1512 140.345 43.427 138.183L29.2349 95.6688C28.5153 93.5054 28.6353 91.128 29.5686 89.0582C30.502 86.9884 32.1724 85.3952 34.2134 84.6282L116.828 53.6918C118.871 52.9297 121.116 53.0568 123.07 54.0453C125.024 55.0338 126.529 56.803 127.253 58.9647L141.445 101.479C142.164 103.642 142.044 106.019 141.111 108.089C140.178 110.159 138.507 111.752 136.466 112.519Z" fill="white"/>
<path d="M141.445 101.479L141.52 101.704C142.209 103.77 142.095 106.041 141.204 108.018C140.312 109.996 138.715 111.516 136.764 112.247L53.7358 143.338C51.7854 144.068 49.6412 143.947 47.7746 143.003C45.908 142.059 44.4719 140.368 43.7822 138.303L43.7071 138.078L141.445 101.479Z" fill="#F2F2F2"/>
<path d="M48.6957 94.499C43.2195 98.3154 36.2011 95.4433 33.7466 91.2598L34.1379 91.0243C38.7999 87.9465 45.7234 89.6613 48.6957 94.499Z" fill="#E6474B"/>
<path d="M117.32 105.327C115.979 105.829 114.772 105.806 113.732 105.258C111.381 104.021 110.278 100.353 109.391 97.4048C109.133 96.5473 108.89 95.7372 108.642 95.0752L108.638 95.0651C108.207 93.7518 108.282 92.3111 108.847 91.056C109.413 89.801 110.423 88.833 111.659 88.3623L122.771 84.2011C124.11 83.6998 125.315 83.7227 126.355 84.2691C128.705 85.5048 129.809 89.172 130.696 92.1186C130.955 92.9779 131.2 93.7896 131.449 94.4526C131.883 95.7673 131.809 97.2103 131.243 98.4676C130.678 99.725 129.667 100.695 128.429 101.167L117.32 105.327ZM109.104 94.8868C109.358 95.5648 109.603 96.3813 109.863 97.2457C110.721 100.099 111.789 103.65 113.952 104.789C114.881 105.277 115.928 105.292 117.154 104.832L128.264 100.672C129.376 100.249 130.286 99.3771 130.796 98.2469C131.305 97.1166 131.373 95.8191 130.985 94.6362C130.733 93.9663 130.486 93.1462 130.225 92.2779C129.366 89.4255 128.297 85.8756 126.135 84.7388C125.207 84.2511 124.161 84.237 122.936 84.6955L111.824 88.8564C110.713 89.2801 109.804 90.1508 109.295 91.2797C108.785 92.4087 108.717 93.7048 109.104 94.8868Z" fill="#3F3D56"/>
<path d="M46.3925 95.8732C44.4398 96.5903 42.3363 96.7128 40.3211 96.2267C37.3782 95.5423 34.7074 93.6813 33.3511 91.3703L33.2152 91.1386L33.826 90.7709C38.5581 87.6491 45.6542 89.3415 48.7171 94.3256L48.8514 94.5441L48.6458 94.6875C47.9428 95.178 47.1861 95.5761 46.3925 95.8732ZM33.9116 91.3225C35.2389 93.4114 37.7089 95.0823 40.4273 95.7145C43.0698 96.3682 45.8491 95.8932 48.1633 94.3923C45.1671 89.8022 38.5291 88.2796 34.0837 91.2187L33.9116 91.3225Z" fill="#3F3D56"/>
<path d="M49.2949 126.387C48.6011 126.678 47.8457 126.763 47.1097 126.634C46.3736 126.504 45.6848 126.165 45.117 125.652C44.4524 125.037 43.9486 124.251 43.6541 123.37C43.3597 122.489 43.2845 121.542 43.4357 120.621C43.5762 119.828 43.9212 119.093 44.4322 118.495C44.9433 117.898 45.6007 117.462 46.3314 117.235L61.1376 111.691C61.8403 111.382 62.6098 111.285 63.3612 111.411C64.1126 111.536 64.8167 111.878 65.396 112.401C66.0602 113.016 66.5636 113.802 66.8577 114.683C67.1518 115.565 67.2266 116.511 67.0751 117.432C66.7827 119.05 65.7512 120.242 64.1788 120.813L49.3723 126.357C49.3465 126.368 49.3207 126.377 49.2949 126.387ZM46.4235 117.756C45.7917 117.963 45.225 118.348 44.7843 118.87C44.3436 119.392 44.0455 120.031 43.922 120.719C43.7858 121.549 43.8535 122.402 44.1188 123.196C44.3841 123.99 44.838 124.698 45.4367 125.252C45.95 125.713 46.5737 126.014 47.2386 126.122C47.9035 126.23 48.5837 126.141 49.2038 125.864L64.0173 120.317C64.6642 120.12 65.2468 119.736 65.7007 119.21C66.1545 118.683 66.4619 118.034 66.5889 117.333C66.7254 116.504 66.6579 115.651 66.393 114.857C66.128 114.063 65.6744 113.355 65.076 112.801C64.562 112.34 63.9381 112.039 63.2729 111.931C62.6077 111.822 61.9271 111.909 61.306 112.184L46.4915 117.732C46.4688 117.74 46.446 117.748 46.4235 117.756L46.4235 117.756Z" fill="#3F3D56"/>
<path d="M117.419 92.8181L112.751 94.5659C112.442 94.6818 112.101 94.6627 111.805 94.5129C111.509 94.3631 111.281 94.0947 111.172 93.767C111.062 93.4392 111.08 93.0788 111.222 92.7651C111.363 92.4514 111.616 92.21 111.926 92.0941L116.593 90.3463C116.903 90.2304 117.243 90.2495 117.539 90.3993C117.836 90.5492 118.063 90.8175 118.173 91.1453C118.282 91.473 118.264 91.8334 118.123 92.1471C117.981 92.4608 117.728 92.7022 117.419 92.8181Z" fill="#E6474B"/>
<path d="M118.739 96.7729L114.071 98.5207C113.762 98.6366 113.422 98.6175 113.125 98.4677C112.829 98.3178 112.601 98.0495 112.492 97.7217C112.382 97.394 112.4 97.0336 112.542 96.7199C112.683 96.4062 112.937 96.1648 113.246 96.0489L117.914 94.3011C118.223 94.1852 118.563 94.2043 118.86 94.3541C119.156 94.5039 119.384 94.7723 119.493 95.1C119.603 95.4278 119.585 95.7882 119.443 96.1019C119.302 96.4156 119.048 96.657 118.739 96.7729Z" fill="#E6474B"/>
<path d="M120.059 100.728L115.391 102.475C115.238 102.533 115.076 102.558 114.914 102.549C114.751 102.539 114.592 102.497 114.446 102.422C114.299 102.348 114.167 102.244 114.059 102.116C113.95 101.988 113.866 101.839 113.812 101.677C113.758 101.514 113.734 101.342 113.743 101.17C113.752 100.998 113.792 100.83 113.862 100.675C113.932 100.519 114.03 100.38 114.151 100.265C114.272 100.15 114.413 100.061 114.566 100.004L119.234 98.2559C119.387 98.1985 119.549 98.1736 119.712 98.1827C119.874 98.1918 120.033 98.2347 120.18 98.3089C120.326 98.3831 120.458 98.4871 120.567 98.6151C120.675 98.7431 120.759 98.8925 120.813 99.0548C120.867 99.2171 120.891 99.3891 120.882 99.561C120.874 99.7329 120.833 99.9013 120.763 100.057C120.693 100.212 120.595 100.351 120.474 100.466C120.353 100.581 120.212 100.67 120.059 100.728Z" fill="#E6474B"/>
<path d="M125.587 89.7594L120.919 91.5072C120.766 91.5646 120.604 91.5894 120.441 91.5803C120.279 91.5712 120.12 91.5284 119.973 91.4542C119.827 91.38 119.695 91.2759 119.586 91.1479C119.478 91.02 119.394 90.8706 119.34 90.7083C119.286 90.546 119.262 90.3739 119.271 90.202C119.279 90.0301 119.32 89.8617 119.39 89.7064C119.46 89.551 119.558 89.4119 119.679 89.2967C119.8 89.1816 119.941 89.0928 120.094 89.0354L124.762 87.2876C125.071 87.1717 125.411 87.1908 125.708 87.3406C126.004 87.4905 126.232 87.7588 126.341 88.0865C126.45 88.4143 126.432 88.7747 126.291 89.0884C126.15 89.4021 125.896 89.6435 125.587 89.7594Z" fill="#E6474B"/>
<path d="M126.907 93.7142L122.239 95.462C122.086 95.5194 121.924 95.5442 121.761 95.5351C121.599 95.526 121.44 95.4832 121.293 95.409C121.147 95.3348 121.015 95.2308 120.907 95.1028C120.798 94.9748 120.714 94.8254 120.66 94.6631C120.606 94.5008 120.582 94.3288 120.591 94.1569C120.6 93.985 120.64 93.8165 120.71 93.6612C120.78 93.5059 120.878 93.3667 120.999 93.2516C121.12 93.1364 121.261 93.0476 121.414 92.9903L126.082 91.2424C126.235 91.1851 126.397 91.1602 126.56 91.1693C126.722 91.1784 126.881 91.2213 127.028 91.2955C127.174 91.3696 127.306 91.4737 127.415 91.6017C127.523 91.7297 127.607 91.8791 127.661 92.0414C127.715 92.2037 127.739 92.3757 127.73 92.5476C127.722 92.7195 127.681 92.8879 127.611 93.0432C127.541 93.1986 127.443 93.3378 127.322 93.4529C127.201 93.568 127.06 93.6568 126.907 93.7142Z" fill="#E6474B"/>
<path d="M128.227 97.669L123.56 99.4168C123.25 99.5327 122.91 99.5136 122.614 99.3638C122.317 99.214 122.09 98.9456 121.98 98.6179C121.871 98.2901 121.889 97.9297 122.03 97.616C122.172 97.3023 122.425 97.0609 122.734 96.945L127.402 95.1972C127.555 95.1398 127.718 95.115 127.88 95.1241C128.042 95.1332 128.201 95.1761 128.348 95.2502C128.495 95.3244 128.626 95.4285 128.735 95.5565C128.843 95.6844 128.927 95.8338 128.981 95.9961C129.036 96.1584 129.059 96.3305 129.051 96.5024C129.042 96.6743 129.001 96.8427 128.931 96.998C128.861 97.1534 128.763 97.2926 128.642 97.4077C128.521 97.5228 128.38 97.6116 128.227 97.669Z" fill="#E6474B"/>
<path d="M130.343 68.2192L32.6049 104.819L32.7699 105.313L130.508 68.7135L130.343 68.2192Z" fill="#3F3D56"/>
<path d="M136.466 112.519L53.8513 143.456C51.8086 144.218 49.564 144.091 47.6097 143.102C45.6554 142.114 44.1512 140.345 43.427 138.183L29.2349 95.6688C28.5153 93.5054 28.6353 91.128 29.5686 89.0582C30.502 86.9884 32.1724 85.3952 34.2134 84.6282L116.828 53.6918C118.871 52.9297 121.116 53.0568 123.07 54.0453C125.024 55.0338 126.529 56.803 127.253 58.9647L141.445 101.479C142.164 103.642 142.044 106.019 141.111 108.089C140.178 110.159 138.507 111.752 136.466 112.519ZM34.3784 85.1225C32.4611 85.8431 30.8919 87.3397 30.0152 89.2841C29.1384 91.2284 29.0257 93.4617 29.7016 95.494L43.8937 138.008C44.5741 140.039 45.9871 141.701 47.823 142.629C49.6588 143.558 51.7674 143.677 53.6863 142.961L136.301 112.025C138.219 111.304 139.788 109.808 140.665 107.863C141.541 105.919 141.654 103.686 140.978 101.653L126.786 59.1395C126.106 57.1088 124.693 55.4469 122.857 54.5183C121.021 53.5897 118.912 53.4702 116.993 54.1862L34.3784 85.1225Z" fill="#3F3D56"/>
<path d="M245.667 165H0.332882C0.244596 165 0.159926 164.963 0.0974987 164.897C0.0350712 164.831 0 164.741 0 164.647C0 164.554 0.0350712 164.464 0.0974987 164.398C0.159926 164.332 0.244596 164.295 0.332882 164.295H245.667C245.755 164.295 245.84 164.332 245.903 164.398C245.965 164.464 246 164.554 246 164.647C246 164.741 245.965 164.831 245.903 164.897C245.84 164.963 245.755 165 245.667 165Z" fill="#CBCBCB"/>
</g>
<defs>
<clipPath id="clip0_11_318">
<rect width="246" height="165" fill="white"/>
</clipPath>
</defs>
</svg>
